<?xml version="1.0" standalone="no"?>
<!DOCTYPE svg PUBLIC "-//W3C//DTD SVG 20010904//EN"
 "http://www.w3.org/TR/2001/REC-SVG-20010904/DTD/svg10.dtd">
<svg version="1.0" xmlns="http://www.w3.org/2000/svg"
 width="1080.000000pt" height="1080.000000pt" viewBox="0 0 1080.000000 1080.000000"
 preserveAspectRatio="xMidYMid meet">
<metadata>
Created by potrace 1.14, written by Peter Selinger 2001-2017
</metadata>
<g transform="translate(0.000000,1080.000000) scale(0.100000,-0.100000)"
fill="#ffffff" stroke="none">
<path d="M7124 7569 c-252 -19 -483 -140 -619 -324 -17 -22 -32 -42 -35 -45
-3 -3 -11 -16 -19 -30 -107 -185 -151 -355 -156 -605 -3 -158 3 -230 30 -370
28 -137 93 -269 224 -446 13 -18 2 -19 -378 -19 l-391 0 5 28 c3 15 7 36 9 47
2 11 7 40 11 65 4 25 9 54 11 65 2 11 6 34 9 50 3 17 10 53 15 80 5 28 12 64
14 80 14 85 37 212 41 225 3 8 7 31 9 50 3 19 12 76 21 125 9 50 18 104 21
120 3 17 23 127 44 245 21 118 41 235 45 260 4 25 11 68 17 95 5 28 12 64 15
80 3 17 10 62 17 101 l13 71 -263 0 c-294 0 -267 8 -279 -78 -3 -25 -8 -57
-10 -70 -2 -13 -11 -74 -20 -135 -8 -60 -18 -121 -20 -135 -2 -13 -16 -105
-30 -204 -14 -99 -28 -191 -30 -205 -2 -14 -7 -45 -10 -70 -3 -25 -10 -70 -15
-100 -5 -30 -12 -75 -15 -100 -3 -25 -10 -70 -15 -100 -5 -30 -12 -75 -15
-100 -7 -52 -15 -104 -20 -140 -20 -133 -38 -254 -43 -295 l-7 -50 -144 -3
c-80 -1 -148 1 -152 5 -4 4 -10 26 -12 48 -5 37 -21 141 -33 210 -3 17 -7 41
-9 55 -9 56 -35 227 -39 250 -9 47 -57 345 -66 410 -13 86 -19 124 -30 190
-11 63 -13 80 -35 215 -9 55 -18 111 -20 125 -2 14 -11 70 -20 125 -8 55 -18
112 -21 126 l-5 26 -210 0 c-115 0 -211 -3 -214 -7 -2 -3 -9 -38 -15 -76 -6
-38 -13 -80 -16 -94 -5 -28 -84 -500 -90 -540 -2 -14 -5 -40 -8 -58 -3 -18 -7
-45 -10 -60 -3 -15 -8 -43 -11 -62 -3 -19 -12 -71 -20 -115 -7 -44 -16 -96
-19 -115 -3 -19 -7 -44 -10 -55 -2 -11 -7 -40 -10 -65 -3 -25 -8 -56 -11 -70
-2 -14 -7 -36 -10 -50 -2 -14 -7 -45 -10 -70 -5 -42 -7 -55 -20 -120 -3 -14
-10 -56 -16 -95 -6 -38 -13 -77 -14 -85 -2 -8 -4 -23 -4 -32 -1 -16 -15 -18
-155 -18 l-153 0 -7 48 c-11 81 -16 115 -26 177 -5 33 -12 80 -15 105 -3 25
-11 74 -16 110 -10 67 -12 82 -24 165 -4 28 -9 59 -11 70 -1 11 -10 70 -18
130 -9 61 -18 119 -20 130 -2 11 -7 43 -10 70 -4 28 -9 61 -11 75 -3 14 -7 41
-9 60 -3 19 -9 67 -15 105 -47 317 -61 416 -66 453 -3 24 -8 54 -11 66 l-5 22
-265 1 c-166 0 -264 -3 -264 -9 0 -15 49 -305 60 -358 5 -25 12 -61 15 -80 2
-19 7 -46 9 -60 2 -14 14 -81 26 -150 12 -69 23 -134 25 -145 1 -11 8 -47 14
-80 6 -33 13 -76 16 -95 5 -30 37 -213 50 -290 3 -14 7 -36 10 -50 3 -14 7
-41 10 -60 10 -64 25 -155 30 -180 7 -37 24 -129 31 -175 3 -22 8 -43 11 -47
2 -5 -151 -8 -341 -8 l-345 0 15 48 c69 214 122 428 141 567 10 77 10 393 0
465 -38 267 -146 477 -308 596 -154 113 -357 165 -619 159 -475 -10 -715 -213
-804 -680 -14 -77 -17 -99 -32 -230 -4 -33 -7 -150 -8 -261 -1 -192 -2 -201
-24 -224 l-22 -24 0 -668 c0 -655 0 -668 20 -688 22 -22 18 -22 260 -22 214 0
223 1 238 11 7 4 24 48 36 97 42 163 81 225 169 269 50 24 97 39 97 30 0 -3
-9 -21 -19 -42 -11 -21 -47 -96 -79 -168 -33 -71 -85 -182 -115 -245 -58 -122
-64 -136 -389 -810 -39 -80 -83 -172 -98 -205 -15 -33 -51 -108 -79 -167 l-50
-108 899 0 900 0 0 235 c0 217 -1 235 -17 236 -10 0 -234 1 -498 1 -264 0
-483 2 -486 4 -8 5 130 277 142 282 5 2 9 11 9 21 0 9 4 21 9 27 5 5 26 41 46
79 51 96 130 245 175 330 106 198 280 556 280 576 0 5 66 9 153 10 559 1 819
0 824 -5 5 -5 15 -54 47 -246 4 -19 9 -48 12 -63 3 -16 7 -38 9 -50 3 -22 61
-363 69 -403 3 -12 7 -37 10 -55 3 -19 8 -45 10 -59 3 -14 15 -81 26 -150 24
-141 28 -166 34 -196 2 -12 7 -38 10 -58 3 -20 9 -52 12 -72 3 -20 8 -46 10
-58 2 -11 7 -37 10 -56 3 -19 16 -98 30 -175 13 -77 24 -143 24 -147 0 -5 101
-8 224 -8 l224 0 12 73 c7 39 14 79 15 87 2 8 10 60 19 115 22 130 25 145 31
175 2 13 7 42 10 65 3 22 8 47 10 55 2 8 6 33 10 55 9 60 14 95 25 150 5 28
11 64 14 80 2 17 14 86 25 154 12 68 24 138 26 155 9 49 24 138 30 171 4 25
19 114 41 250 2 17 9 53 14 80 5 28 13 68 16 90 3 22 7 41 9 43 4 5 286 5 290
0 3 -2 7 -22 10 -44 3 -21 11 -65 16 -97 6 -32 12 -74 15 -95 2 -20 6 -44 9
-52 2 -8 9 -46 15 -85 13 -92 15 -101 61 -380 23 -132 42 -253 45 -270 2 -16
6 -41 9 -55 3 -14 7 -43 10 -65 3 -22 10 -62 15 -90 5 -27 12 -68 15 -90 3
-23 7 -50 9 -62 5 -23 13 -74 22 -130 3 -21 14 -89 25 -152 10 -62 19 -118 19
-122 0 -5 98 -9 219 -9 l218 0 7 48 c7 54 10 69 36 212 11 58 22 122 26 144 3
21 7 48 10 60 7 35 53 298 59 336 4 29 11 59 20 100 1 3 5 30 9 60 9 60 13 82
21 120 3 14 7 39 10 55 2 17 22 131 45 255 22 124 45 252 50 285 14 87 21 119
24 123 3 2 1115 5 1303 2 40 0 44 -3 135 -108 113 -130 144 -169 191 -247 70
-115 104 -242 106 -406 9 -536 -429 -727 -924 -405 l-85 56 0 -275 0 -274 33
-26 c64 -48 235 -124 318 -140 297 -59 561 -16 771 126 35 24 96 76 136 118
69 71 170 217 187 271 4 14 11 30 15 35 14 19 48 130 64 208 22 106 29 174 30
287 1 281 -50 489 -169 687 -29 49 -52 89 -50 91 1 1 117 2 256 2 140 -1 291
-1 335 0 58 0 83 -3 86 -12 2 -7 4 -412 3 -900 l0 -888 732 0 733 0 0 233 0
234 -450 0 c-248 0 -453 3 -456 6 -6 6 -8 1287 -2 1292 8 8 148 -28 194 -50
95 -45 125 -96 173 -300 20 -82 10 -79 277 -80 l236 0 19 24 c19 23 20 43 17
697 -3 660 -3 673 -23 688 -16 12 -62 14 -253 13 -272 -2 -261 2 -282 -114
-38 -204 -109 -271 -327 -308 -33 -5 -33 -5 -33 35 -1 22 -1 285 -1 585 0 300
0 572 1 605 l0 60 455 0 455 0 0 233 0 234 -732 -1 -733 -1 0 -887 c0 -487 -3
-889 -6 -893 -3 -3 -257 -5 -564 -5 l-558 0 -61 63 c-34 35 -90 97 -126 137
-36 41 -73 82 -82 91 -30 32 -124 173 -145 219 -76 165 -76 416 -1 564 23 46
78 117 123 158 32 30 135 85 175 94 177 39 326 4 523 -122 l67 -44 0 273 0
272 -53 24 c-202 91 -392 126 -603 110z m-5228 -495 c130 -44 205 -160 230
-354 6 -54 6 -230 -1 -285 -21 -169 -107 -483 -174 -638 l-21 -48 -67 5 c-298
25 -392 93 -448 325 -10 41 -27 83 -37 93 -19 19 -19 20 24 17 l43 -4 1 195
c0 225 8 312 34 414 50 197 150 295 301 296 36 0 88 -7 115 -16z m2613 -736
c3 -70 8 -125 21 -233 6 -49 13 -110 16 -135 2 -25 7 -58 9 -75 2 -16 7 -52
11 -80 3 -27 8 -58 10 -67 2 -16 -6 -18 -75 -18 l-78 0 13 80 c7 44 16 113 19
153 3 39 8 88 10 107 2 19 7 78 11 130 3 52 8 102 9 110 2 8 4 30 4 48 1 53
17 36 20 -20z m-593 -1107 c7 -1 9 -16 4 -48 -4 -27 -11 -75 -14 -108 -4 -33
-9 -78 -11 -100 -3 -22 -7 -60 -10 -85 -10 -107 -26 -268 -30 -300 -2 -19 -4
-50 -4 -69 -1 -19 -3 -32 -6 -29 -6 5 -11 49 -20 153 -3 33 -7 85 -10 115 -3
30 -7 87 -10 125 -2 39 -7 93 -10 120 -3 28 -8 70 -11 95 -2 25 -7 64 -10 87
-5 38 -3 42 18 45 19 2 65 2 124 -1z m1320 -40 c-6 -38 -17 -128 -21 -171 -5
-49 -16 -155 -20 -185 -2 -16 -7 -70 -11 -120 -4 -49 -9 -93 -10 -97 -1 -5 -3
-32 -4 -60 l-2 -53 -8 40 c-4 22 -11 77 -14 122 -4 45 -9 91 -11 103 -2 12 -7
49 -10 83 -3 35 -7 71 -9 82 -2 11 -7 51 -11 89 -4 38 -8 79 -10 90 -2 12 -6
42 -10 68 l-6 47 38 3 c21 2 57 1 81 -1 l43 -3 -5 -37z"/>
</g>
</svg>
