<?xml version="1.0" standalone="no"?>
<!DOCTYPE svg PUBLIC "-//W3C//DTD SVG 20010904//EN"
 "http://www.w3.org/TR/2001/REC-SVG-20010904/DTD/svg10.dtd">
<svg version="1.0" xmlns="http://www.w3.org/2000/svg"
 width="1080.000000pt" height="1080.000000pt" viewBox="0 0 1080.000000 1080.000000"
 preserveAspectRatio="xMidYMid meet">
<metadata>
Created by potrace 1.14, written by Peter Selinger 2001-2017
</metadata>
<g transform="translate(0.000000,1080.000000) scale(0.100000,-0.100000)"
fill="#000000" stroke="none">
<path d="M0 5400 l0 -5400 5400 0 5400 0 0 5400 0 5400 -5400 0 -5400 0 0
-5400z m7500 2142 c91 -25 143 -43 221 -78 l59 -27 0 -274 0 -274 -42 29
c-293 198 -559 202 -749 13 -107 -108 -149 -220 -149 -402 0 -242 75 -385 356
-678 57 -60 104 -111 104 -115 0 -3 -166 -6 -369 -6 l-370 0 -60 83 c-116 157
-177 319 -200 530 -37 328 21 629 161 844 124 191 309 317 538 368 98 22 399
14 500 -13z m-4065 -44 c7 -33 255 -1733 255 -1752 0 -14 -26 -16 -245 -16
-160 0 -245 4 -245 10 0 6 -67 401 -150 878 -82 477 -150 875 -150 884 0 17
19 18 265 18 l265 0 5 -22z m1290 0 c3 -13 66 -405 140 -873 74 -467 137 -860
140 -872 l5 -23 -215 0 c-164 0 -217 3 -220 13 -6 18 -44 332 -60 496 -8 79
-16 145 -18 148 -3 2 -8 -36 -11 -84 -14 -174 -37 -410 -48 -490 l-11 -83
-214 0 c-164 0 -213 3 -213 13 0 6 66 409 146 895 l147 882 213 0 c213 0 214
0 219 -22z m1369 -5 c-3 -16 -74 -417 -158 -893 l-153 -865 -241 -3 -242 -2 5
22 c2 13 61 410 130 883 69 473 128 866 130 873 3 9 66 12 269 12 l266 0 -6
-27z m3806 -208 l0 -235 -455 0 -455 0 0 -644 0 -644 -27 -6 c-40 -8 -343 -26
-445 -26 l-88 0 0 895 0 895 735 0 735 0 0 -235z m-8550 -1175 c0 -40 61 -208
90 -249 87 -120 253 -163 687 -181 328 -13 6337 -13 6593 0 396 21 546 67 622
190 23 39 52 129 73 233 l5 27 215 0 215 0 0 -655 0 -655 -214 0 -215 0 -11
58 c-28 142 -62 214 -126 270 -77 69 -191 100 -451 124 -202 19 -6750 19
-6933 0 -370 -38 -476 -110 -537 -364 l-18 -78 -212 0 -213 0 0 650 0 650 215
0 c208 0 215 -1 215 -20z m2424 -912 c5 -32 20 -177 51 -528 9 -96 17 -176 19
-177 2 -2 6 36 10 84 6 86 50 512 62 606 l7 47 218 0 c170 0 217 -3 214 -12
-3 -7 -70 -400 -150 -873 -80 -473 -148 -872 -151 -887 l-6 -28 -224 0 c-123
0 -224 2 -224 4 0 6 -300 1739 -306 1769 l-6 27 240 0 240 0 6 -32z m1311 0
c9 -58 44 -349 61 -513 9 -88 17 -161 18 -163 2 -1 6 37 9 86 8 110 55 557 63
595 l6 27 224 0 c123 0 224 -3 224 -7 1 -5 -70 -410 -157 -900 l-157 -893
-217 0 -217 0 -6 28 c-10 51 -286 1748 -286 1760 0 9 52 12 215 12 l214 0 6
-32z m2701 -25 c108 -168 166 -352 185 -582 34 -429 -97 -792 -369 -1017 -77
-64 -235 -144 -337 -171 -98 -25 -387 -26 -495 0 -91 21 -210 72 -290 124
l-60 38 0 277 0 278 68 -44 c167 -108 296 -156 437 -163 212 -11 355 67 441
242 50 103 67 195 61 340 -10 231 -78 379 -276 604 -31 35 -69 79 -84 97 l-28
34 355 0 355 0 37 -57z m1088 36 c54 -5 102 -9 107 -9 5 0 9 -275 9 -650 l0
-650 455 0 455 0 0 -235 0 -235 -735 0 -735 0 0 901 0 901 173 -7 c94 -3 216
-10 271 -16z"/>
</g>
</svg>
